#define pointer_width 16
#define pointer_height 16
#define pointer_x_hot 4
#define pointer_y_hot 1
static unsigned char pointer_bits[] = {
   0x00, 0x00, 0x10, 0x00, 0x30, 0x00, 0x50, 0x00, 0x90, 0x00, 0x10, 0x01,
   0x10, 0x02, 0x10, 0x04, 0x10, 0x08, 0x10, 0x10, 0x90, 0x3f, 0x50, 0x00,
   0x30, 0x00, 0x10, 0x00, 0x00, 0x00, 0x00, 0x00 };
