#define target_mask_width 16
#define target_mask_height 16
#define target_mask_x_hot 7
#define target_mask_y_hot 7
static unsigned char target_mask_bits[] = {
   0xc0, 0x01, 0xc0, 0x01, 0xc0, 0x01, 0xc0, 0x01, 0x80, 0x00, 0x80, 0x00,
   0x0f, 0x78, 0x3f, 0x7e, 0x0f, 0x78, 0x00, 0x00, 0x80, 0x00, 0x80, 0x00,
   0xc0, 0x01, 0xc0, 0x01, 0xc0, 0x01, 0xc0, 0x01 };
