#define handdown_width 16
#define handdown_height 16
#define handdown_x_hot 6
#define handdown_y_hot 7
static unsigned char handdown_bits[] = {
   0x00, 0x00, 0x00, 0x00, 0xc0, 0x0f, 0x70, 0x32, 0x48, 0x52, 0x08, 0x90,
   0x18, 0x80, 0x14, 0x80, 0x02, 0x40, 0x02, 0x40, 0x04, 0x20, 0x08, 0x20,
   0x10, 0x10, 0x20, 0x10, 0x20, 0x10, 0x00, 0x00 };
