#define handdown_mask_width 16
#define handdown_mask_height 16
#define handdown_mask_x_hot 6
#define handdown_mask_y_hot 7
static unsigned char handdown_mask_bits[] = {
   0x00, 0x00, 0x00, 0x00, 0xc0, 0x0f, 0xf0, 0x3f, 0xf8, 0x7f, 0xf8, 0xff,
   0xf8, 0xff, 0xfc, 0xff, 0xfe, 0x7f, 0xfe, 0x7f, 0xfc, 0x3f, 0xf8, 0x3f,
   0xf0, 0x1f, 0xe0, 0x1f, 0xe0, 0x1f, 0x00, 0x00 };
