#define link_width 16
#define link_height 16
#define link_x_hot 4
#define link_y_hot 1
static unsigned char link_bits[] = {
   0x00, 0x00, 0x10, 0x00, 0x30, 0x00, 0x50, 0x00, 0x90, 0x00, 0x50, 0x01,
   0xd0, 0x02, 0xd0, 0x05, 0xd0, 0x0a, 0x50, 0x10, 0x90, 0x3f, 0x50, 0x00,
   0x30, 0x00, 0x10, 0x00, 0x00, 0x00, 0x00, 0x00 };
